<svg version="1.1" id="arrow-to-top" xmlns="http://www.w3.org/2000/svg" x="0" y="0" viewBox="0 0 511.999 511.999" xml:space="preserve"><path d="M460.997 186.026L285.211 11.947C278.384 5.12 268.144 0 257.904 0h-1.707c-10.24 0-20.48 3.413-29.014 11.947L51.397 186.026c-15.36 15.36-15.36 40.96 0 56.32l35.84 35.84c15.36 15.36 42.667 15.36 56.32 0l46.08-46.08v238.933c0 22.186 17.067 40.96 37.547 40.96h49.494c22.186 0 40.96-18.773 40.96-40.96V230.4l47.787 49.493c15.36 15.36 40.96 15.36 56.32 0l35.84-35.84c18.772-17.066 18.772-40.96 3.412-58.027zm-23.893 32.427l-35.84 35.84c-3.413 3.413-5.12 3.413-6.827 0l-76.8-78.507c-5.12-5.12-11.947-6.827-18.774-3.413-6.827 3.413-10.24 8.534-10.24 15.36V471.04c0 1.706-3.413 6.827-6.827 6.827h-49.493c-3.413 0-3.413-3.413-3.413-6.827V191.147c0-6.827-3.413-13.653-10.24-15.36-1.707-1.707-5.12-1.707-6.827-1.707-5.12 0-8.534 1.707-11.946 5.12l-80.214 75.093c-1.706 1.707-6.827 1.707-8.533 0l-35.84-35.84c-1.706-1.707-1.706-5.12 0-8.534L251.077 35.84c1.707-1.706 3.413-1.706 3.413-1.706h1.707c1.707 0 3.413 0 3.413 1.706l175.786 175.787c3.415 1.707 3.415 5.119 1.708 6.826z"/></svg>